<svg width="29" height="17" fill="none" xmlns="http://www.w3.org/2000/svg"><path d="M21.331 5.11l2.323-4.1a.485.485 0 00-.17-.655.46.46 0 00-.64.173L20.49 4.681A14.133 14.133 0 0014.5 3.38c-2.173 0-4.194.466-5.989 1.301L6.158.528a.464.464 0 00-.643-.173.483.483 0 00-.171.655l2.323 4.1C3.66 7.32.949 11.452.5 16.29h28c-.448-4.838-3.16-8.969-7.169-11.18zM8.072 12.282c-.65 0-1.174-.537-1.174-1.196 0-.662.528-1.195 1.174-1.195.65 0 1.174.537 1.174 1.195a1.183 1.183 0 01-1.174 1.196zm12.854 0c-.65 0-1.174-.537-1.174-1.196 0-.662.528-1.195 1.174-1.195.65 0 1.174.537 1.174 1.195a1.183 1.183 0 01-1.174 1.196z" fill="#999"/></svg>