<svg width="55" height="55" fill="none" xmlns="http://www.w3.org/2000/svg"><path d="M37.372 2.104A26.93 26.93 0 0027.5.242c-14.912 0-27 12.089-27 27 0 14.912 12.088 27 27 27s27-12.088 27-27a26.95 26.95 0 00-1.713-9.485l-2.362 2.362a23.994 23.994 0 011.075 7.123c0 13.255-10.745 24-24 24s-24-10.745-24-24c0-13.254 10.745-24 24-24 2.63 0 5.16.423 7.529 1.205l2.343-2.343z" fill="#00A88E"/><path d="M31.353 8.123a19.592 19.592 0 00-3.853-.38c-10.77 0-19.5 8.73-19.5 19.5s8.73 19.5 19.5 19.5 19.5-8.73 19.5-19.5c0-1.161-.101-2.298-.296-3.403l-2.718 2.718c.01.227.014.455.014.685 0 9.112-7.387 16.5-16.5 16.5S11 36.355 11 27.243c0-9.113 7.387-16.5 16.5-16.5.4 0 .798.014 1.191.042l2.662-2.662z" fill="#00A88E"/><path fill-rule="evenodd" clip-rule="evenodd" d="M44.813.308l1.5 6 2.626-2.626 2.122 2.121-2.627 2.627 6 1.5L41.46 22.904l-6-1.5-5.062 5.061a3.002 3.002 0 01-2.898 3.777 3 3 0 11.777-5.898l5.062-5.062-1.5-6L44.813.308zM37.934 18.93l2.606.651 1.895-1.895-2.606-.65-1.895 1.894zm3.132-3.132l2.605.652 1.913-1.913-2.605-.652-1.913 1.913zm3.15-3.15l2.605.652 1.745-1.745-2.606-.651-1.744 1.744zm-.377-3.866l-.652-2.606-1.744 1.745.651 2.606 1.745-1.745zm-2.982 2.982l-5.044 5.045-.652-2.607 5.045-5.044.651 2.606z" fill="#1D1D1B"/><path d="M37.056 12.308l.651 2.605 1.043.33.194-1.566-.651-2.606L36.5 9.992l.556 2.316z" fill="#1D1D1B"/></svg>