<svg width="71" height="71" fill="none" xmlns="http://www.w3.org/2000/svg"><path fill-rule="evenodd" clip-rule="evenodd" d="M38.43 1.869a6.592 6.592 0 00-6.541 0L7.716 15.681a6.592 6.592 0 00-3.322 5.724v27.507a6.592 6.592 0 003.322 5.724l24.172 13.812a6.592 6.592 0 006.54 0L62.6 54.636a6.592 6.592 0 003.322-5.724V21.405a6.592 6.592 0 00-3.322-5.724L38.43 1.87z" fill="#00A88E"/><path fill-rule="evenodd" clip-rule="evenodd" d="M40.652 41.751c0-1.214-2.46-2.197-5.493-2.197-3.035 0-5.494.983-5.494 2.197s2.46 2.198 5.494 2.198 5.493-.984 5.493-2.198zM19.777 19.776H50.54V17.58H19.777v2.197z" fill="#4D4D4F"/><path fill-rule="evenodd" clip-rule="evenodd" d="M19.777 41.751H50.54V19.777H19.777V41.75z" fill="#6D6E71"/><path fill-rule="evenodd" clip-rule="evenodd" d="M21.974 39.553h26.37V21.974h-26.37v17.58z" fill="#44ADE2"/><path fill-rule="evenodd" clip-rule="evenodd" d="M37.356 52.738H50.54v-1.099H37.357v1.099z" fill="#6D6E71"/><path fill-rule="evenodd" clip-rule="evenodd" d="M37.356 51.64H50.54v-5.494H37.357v5.493z" fill="#4D4D4F"/><path fill-rule="evenodd" clip-rule="evenodd" d="M39.554 50.54h8.79v-3.295h-8.79v3.296z" fill="#A5CF4C"/><path fill-rule="evenodd" clip-rule="evenodd" d="M34.61 24.171l-4.945 2.839v5.243c0 3.454 4.944 5.103 4.944 5.103s4.944-1.649 4.944-5.103V27.01l-4.943-2.84zm0 1.636l3.505 2.014v4.432c0 1.862-2.459 3.126-3.506 3.58-1.049-.454-3.506-1.718-3.506-3.58v-4.432l3.506-2.014z" fill="#fff"/><path fill-rule="evenodd" clip-rule="evenodd" d="M19.777 52.738h15.382v-17.58H19.777v17.58z" fill="#636463"/><path fill-rule="evenodd" clip-rule="evenodd" d="M19.777 35.159h15.382V34.06H19.777v1.099z" fill="#414241"/><path fill-rule="evenodd" clip-rule="evenodd" d="M20.875 51.64H34.06V36.256H20.875V51.64z" fill="#FDB924"/><path fill-rule="evenodd" clip-rule="evenodd" d="M27.907 46.724a.225.225 0 01-.22.231.226.226 0 01-.22-.23V44.18c.152 0 .298-.017.44-.047v2.591zm-.44-6.246c.243 0 .44.208.44.463a.451.451 0 01-.44.463.451.451 0 01-.439-.463c0-.255.197-.463.44-.463zm2.198 1.388c0-1.278-.983-2.312-2.197-2.312-1.213 0-2.198 1.034-2.198 2.312 0 .95.544 1.763 1.32 2.12v.655l.439.463-.44.462v.462l.44.463-.44.464.44.461v.003h.002l.877.924.438-.924h.001v-3.433c.776-.357 1.318-1.17 1.318-2.12z" fill="#fff"/></svg>