<svg width="70" height="71" fill="none" xmlns="http://www.w3.org/2000/svg"><path fill-rule="evenodd" clip-rule="evenodd" d="M38.256 2.705a6.563 6.563 0 00-6.512 0L7.682 16.455a6.563 6.563 0 00-3.307 5.698v27.383a6.562 6.562 0 003.307 5.698l24.062 13.75a6.563 6.563 0 006.512 0l24.063-13.75a6.563 6.563 0 003.306-5.698V22.153a6.563 6.563 0 00-3.306-5.698L38.255 2.705z" fill="#00A88E"/><path fill-rule="evenodd" clip-rule="evenodd" d="M40.469 42.407c0-1.208-2.449-2.187-5.469-2.187-3.02 0-5.469.979-5.469 2.187 0 1.209 2.449 2.188 5.469 2.188 3.02 0 5.469-.98 5.469-2.188zM19.688 20.532h30.625v-2.187H19.686v2.187z" fill="#4D4D4F"/><path fill-rule="evenodd" clip-rule="evenodd" d="M19.688 42.407h30.625V20.532H19.686v21.875z" fill="#6D6E71"/><path fill-rule="evenodd" clip-rule="evenodd" d="M21.875 40.22h26.25v-17.5h-26.25v17.5z" fill="#44ADE2"/><path fill-rule="evenodd" clip-rule="evenodd" d="M34.453 24.907l-4.922 2.826v5.22c0 3.438 4.922 5.08 4.922 5.08s4.922-1.642 4.922-5.08v-5.22l-4.922-2.826zm0 1.629l3.49 2.004v4.412c0 1.854-2.448 3.112-3.49 3.563-1.044-.451-3.49-1.71-3.49-3.563V28.54l3.49-2.004z" fill="#fff"/><path fill-rule="evenodd" clip-rule="evenodd" d="M37.188 53.345h13.124V52.25H37.188v1.094z" fill="#6D6E71"/><path fill-rule="evenodd" clip-rule="evenodd" d="M37.188 52.251h13.124v-5.469H37.188v5.469z" fill="#4D4D4F"/><path fill-rule="evenodd" clip-rule="evenodd" d="M39.375 51.157h8.75v-3.281h-8.75v3.281z" fill="#A5CF4C"/><path fill-rule="evenodd" clip-rule="evenodd" d="M19.688 53.345H35v-17.5H19.687v17.5z" fill="#636463"/><path fill-rule="evenodd" clip-rule="evenodd" d="M19.688 35.845H35V34.75H19.687v1.094z" fill="#414241"/><path fill-rule="evenodd" clip-rule="evenodd" d="M20.781 52.251h13.125V36.938H20.781v15.313z" fill="#F04E45"/><path fill-rule="evenodd" clip-rule="evenodd" d="M27.344 40.22l-3.282 1.884v3.48c0 2.291 3.282 3.386 3.282 3.386s3.281-1.095 3.281-3.387v-3.48l-3.281-1.883zm0 1.067l2.343 1.345v2.952c0 1.248-1.65 2.093-2.343 2.393-.696-.301-2.344-1.145-2.344-2.393v-2.952l2.344-1.345z" fill="#fff"/></svg>