<svg width="70" height="70" fill="none" xmlns="http://www.w3.org/2000/svg"><path d="M4.375 21.678v26.633a7.231 7.231 0 003.631 6.267l23.417 13.377a7.198 7.198 0 007.154 0l23.417-13.377a7.218 7.218 0 003.631-6.267V21.678a7.2 7.2 0 00-3.631-6.256L38.577 2.045a7.197 7.197 0 00-7.154 0L8.006 15.422a7.214 7.214 0 00-3.631 6.256z" fill="#00A88E"/><path fill-rule="evenodd" clip-rule="evenodd" d="M20.781 40.469c0 8.56 11.054 13.494 14.218 14.765V15.312L20.78 23.526v16.339" fill="#B455A0"/><path fill-rule="evenodd" clip-rule="evenodd" d="M18.594 22.969l16.405-9.844v-1.094l-16.405 9.531v1.407z" fill="#008E77"/><path fill-rule="evenodd" clip-rule="evenodd" d="M20.781 24.077L35 15.864v-2.739l-16.405 9.53v17.684C18.595 52.06 34.957 57.66 35 57.676v-2.374c-3.164-1.27-14.218-6.326-14.218-14.886v-16.34z" fill="#fff"/><path fill-rule="evenodd" clip-rule="evenodd" d="M35 15.313v39.921c3.164-1.27 14.219-6.206 14.219-14.765V23.45L35 15.313z" fill="#A23293"/><path fill-rule="evenodd" clip-rule="evenodd" d="M51.406 22.969L35 13.125v-1.094l16.406 9.531v1.407z" fill="#008E77"/><path fill-rule="evenodd" clip-rule="evenodd" d="M49.219 24.001L35 15.864v-2.739l16.406 9.53v17.684C51.406 52.06 35.043 57.66 35 57.676v-2.374c3.164-1.27 14.219-6.326 14.219-14.962V24z" fill="#E5E6E3"/><path fill-rule="evenodd" clip-rule="evenodd" d="M42.593 31.878a2.946 2.946 0 001.561-2.592c0-1.635-1.33-2.96-2.97-2.96-.66 0-1.265.222-1.758.585-1.063-1.048-2.696-1.726-4.367-1.754-2.68-.047-4.931 1.856-5.431 4.388l-.094-.006c-2.98-.042-5.43 2.333-5.471 5.302-.042 2.973 2.485 5.626 5.678 5.626l11.402.002h.36c2.43 0 4.399-1.89 4.434-4.297a4.36 4.36 0 00-3.344-4.294z" fill="#6A1F5B"/><path fill-rule="evenodd" clip-rule="evenodd" d="M42.593 32.972a2.945 2.945 0 001.561-2.591 2.966 2.966 0 00-2.97-2.962c-.66 0-1.265.223-1.758.586-1.063-1.049-2.696-1.726-4.367-1.754-2.68-.047-4.931 1.856-5.431 4.388l-.094-.007c-2.98-.041-5.43 2.335-5.471 5.304-.042 2.972 2.485 5.626 5.678 5.626h11.763c2.428 0 4.398-1.889 4.433-4.295a4.362 4.362 0 00-3.344-4.295z" fill="#fff"/><path fill-rule="evenodd" clip-rule="evenodd" d="M28.438 35.205l1.605-1.606 2.741 2.74 7.902-7.901 1.605 1.606-9.506 9.507-4.347-4.346z" fill="#A23293"/></svg>