<svg width="24" height="13" fill="none" xmlns="http://www.w3.org/2000/svg"><path d="M.607 12.096h1.902V3.582H.607v8.514zm.947-9.63c.596 0 1.062-.482 1.062-1.085C2.616.771 2.15.29 1.554.29.966.29.5.771.5 1.381c0 .603.466 1.085 1.054 1.085zM8.841.313C5.626.313 3.61 2.618 3.61 6.305s2.017 5.984 5.232 5.984c3.209 0 5.225-2.297 5.225-5.984S12.05.313 8.841.313zm0 1.767c1.964 0 3.216 1.639 3.216 4.225 0 2.578-1.252 4.217-3.216 4.217-1.97 0-3.215-1.639-3.215-4.217 0-2.586 1.245-4.225 3.215-4.225zm6.027 6.755c.085 2.137 1.75 3.454 4.286 3.454 2.666 0 4.346-1.381 4.346-3.582 0-1.727-.947-2.7-3.185-3.237l-1.268-.305c-1.352-.338-1.91-.788-1.91-1.559 0-.963.84-1.606 2.085-1.606 1.26 0 2.124.65 2.216 1.735h1.879c-.046-2.04-1.65-3.422-4.08-3.422-2.398 0-4.101 1.39-4.101 3.446 0 1.655.962 2.683 2.994 3.173l1.428.353c1.39.345 1.956.827 1.956 1.663 0 .964-.924 1.654-2.253 1.654-1.345 0-2.36-.698-2.483-1.767h-1.91z" fill="#999"/></svg>