<svg width="258" height="50" fill="none" xmlns="http://www.w3.org/2000/svg"><path d="M116.233 25.151c0 9.951-5.966 14.656-13.434 14.656h-4.565v-5.971h4.209c4.505 0 7.507-2.473 7.507-8.685 0-6.152-2.84-9.228-7.641-9.228-4.623 0-7.927 2.895-7.927 9.107V50h-6.224V10.736h6.224v3.378h.889c2.074-2.835 5.142-4.102 8.342-4.102 6.876 0 12.62 5.066 12.62 15.14zm-40.902-2.594l-4.15-.422c-3.26-.302-4.978-1.206-4.978-3.136 0-2.292 2.193-3.62 5.334-3.62 3.26 0 5.335 1.569 5.513 3.8h5.986c-.237-5.669-4.564-9.167-11.44-9.167-6.934 0-11.617 3.74-11.617 9.228 0 4.584 2.845 7.539 9.306 8.203l4.208.422c2.55.24 4.268.784 4.268 3.257 0 2.231-1.6 3.86-5.809 3.86-3.875 0-5.784-1.79-6.454-4.188H59.02c.645 5.482 5.172 9.736 12.931 9.736 7.29 0 12.033-3.92 12.033-9.71 0-5.127-3.32-7.72-8.654-8.263zm65.006 8.237c-.976 2.281-3.309 4.007-6.619 4.007-4.564 0-7.943-3.016-7.943-9.53 0-6.212 3.142-9.65 8.002-9.65 4.327 0 6.816 2.654 7.054 6.635h-11.203v4.584h17.308v-3.016c0-8.384-5.454-13.812-13.218-13.812-7.231 0-14.167 5.006-14.167 15.26 0 10.252 6.936 15.258 14.167 15.258 6.614 0 11.33-4.145 12.795-9.736h-6.176zm-98.11-20.782c-6.816 0-11.913 3.62-12.506 9.168h6.698c.474-2.05 2.311-3.558 5.808-3.558 4.505 0 5.987 2.413 5.987 5.367v9.952c-2.549 2.955-5.512 4.342-8.476 4.342-3.082 0-5.216-1.508-5.216-4.221 0-2.594 1.66-4.222 4.86-4.222h4.98v-4.584h-5.158c-7.112 0-11.084 3.619-11.084 9.167 0 5.187 3.853 9.107 10.195 9.107 3.557 0 6.698-1.447 9.01-3.196h.889v2.473h6.224V20.386c0-7.177-4.802-10.374-12.21-10.374zM0 39.807h6.224V0H0v39.807zm26.14-29.071h-7.588L9.484 22.859v3.8l9.305 13.148h7.706L15.589 24.728l10.55-13.992zm224.984 0l-5.097 11.52c-1.245 2.774-2.43 5.488-2.786 7.298h-.889c-.356-1.81-1.6-4.464-2.845-7.238l-5.098-11.58h-6.875l11.973 26.115L233.58 50h6.638L258 10.736h-6.876zm-24.967 0h-7.587l-9.068 12.123v3.8l9.305 13.148h7.706l-10.906-15.079 10.55-13.992zm-38.966 11.821l-4.149-.422c-3.261-.302-4.979-1.206-4.979-3.136 0-2.292 2.193-3.62 5.334-3.62 3.26 0 5.335 1.569 5.513 3.8h5.986c-.237-5.669-4.564-9.167-11.44-9.167-6.934 0-11.617 3.74-11.617 9.228 0 4.584 2.845 7.539 9.306 8.203l4.208.422c2.549.24 4.268.784 4.268 3.257 0 2.231-1.6 3.86-5.809 3.86-3.875 0-5.785-1.79-6.455-4.188h-6.476c.645 5.482 5.171 9.736 12.931 9.736 7.291 0 12.033-3.92 12.033-9.71 0-5.127-3.32-7.72-8.654-8.263zm12.827 17.25h6.223V0h-6.223v39.807zm-41.04-25.693h-.89v-3.378h-6.223v29.07h6.223V24.609c0-5.187 2.356-8.203 6.995-8.203h3.94v-6.393h-2.281c-4.304 0-6.133 1.652-7.764 4.102z" fill="#00A88E"/></svg>