<svg width="183" height="57" fill="none" xmlns="http://www.w3.org/2000/svg"><path d="M2 50.059h9v6l-9-6z" fill="#FBBA00"/><g filter="url(#filter0_d)"><path fill-rule="evenodd" clip-rule="evenodd" d="M175.614 23.34L154.275 2l-.275.275V2.06H2v48h151.999l.276.276 21.339-21.34a3.998 3.998 0 000-5.656z" fill="#FFE810"/></g><path d="M27.08 20.459h5.148c1.26 0 2.237.3 2.933.9.697.588 1.044 1.392 1.044 2.412 0 .48-.108.93-.323 1.35-.216.42-.552.75-1.008.99v.27c.707.216 1.26.582 1.655 1.098.396.516.594 1.17.594 1.962 0 1.092-.353 1.968-1.061 2.628-.709.66-1.728.99-3.06.99h-5.923v-12.6zm5.111 5.238c.612 0 1.087-.156 1.422-.468.349-.324.523-.738.523-1.242s-.175-.906-.523-1.206c-.335-.312-.81-.468-1.422-.468h-3.078v3.384h3.078zm.81 5.508c.637 0 1.135-.162 1.495-.486.371-.336.557-.786.557-1.35 0-.564-.185-1.008-.557-1.332-.36-.336-.858-.504-1.495-.504h-3.887v3.672H33zm8.048-8.892v3.42h6.21v1.854h-6.21v3.618h6.57v1.854h-8.604v-12.6h8.604v1.854h-6.57zm13.319 10.962c-1.02 0-1.909-.174-2.665-.522-.756-.36-1.344-.852-1.764-1.476-.42-.636-.648-1.368-.684-2.196h2.106a2.41 2.41 0 00.883 1.638c.528.432 1.26.648 2.196.648.876 0 1.535-.192 1.98-.576.456-.384.683-.864.683-1.44 0-.54-.174-.954-.522-1.242-.348-.3-.822-.474-1.422-.522l-1.655-.144c-1.164-.096-2.1-.432-2.808-1.008-.709-.576-1.063-1.374-1.063-2.394 0-.756.192-1.416.576-1.98.384-.576.918-1.02 1.602-1.332.697-.324 1.489-.486 2.377-.486 1.38 0 2.477.336 3.293 1.008.816.672 1.279 1.596 1.386 2.772h-2.105c-.084-.564-.343-1.008-.775-1.332-.431-.336-1.044-.504-1.836-.504s-1.404.162-1.836.486c-.42.312-.63.72-.63 1.224s.21.888.63 1.152c.42.252.99.408 1.71.468l1.567.126c1.104.096 1.98.444 2.627 1.044.648.588.972 1.434.972 2.538 0 .816-.21 1.53-.63 2.142-.407.612-.977 1.086-1.71 1.422-.731.324-1.56.486-2.483.486zm9.707-10.962h-3.87v-1.854h9.756v1.854h-3.852v10.746h-2.034V22.313zm17.548 10.962a6.372 6.372 0 01-3.096-.774c-.936-.528-1.686-1.284-2.25-2.268-.564-.984-.846-2.142-.846-3.474 0-1.332.282-2.49.846-3.474.564-.984 1.314-1.734 2.25-2.25a6.257 6.257 0 013.096-.792c.924 0 1.8.168 2.628.504a5.2 5.2 0 012.106 1.566c.576.696.936 1.56 1.08 2.592h-2.124a3.226 3.226 0 00-1.26-1.926c-.66-.504-1.47-.756-2.43-.756-.804 0-1.518.198-2.142.594a4.054 4.054 0 00-1.458 1.62c-.348.684-.522 1.458-.522 2.322 0 .864.174 1.638.522 2.322a4.054 4.054 0 001.458 1.62c.624.396 1.338.594 2.142.594.96 0 1.77-.246 2.43-.738a3.302 3.302 0 001.26-1.944h2.124c-.144 1.032-.504 1.902-1.08 2.61a5.267 5.267 0 01-2.106 1.548 6.922 6.922 0 01-2.628.504zm18.033-12.816v12.6h-2.052v-5.382H91.34v5.382h-2.034v-12.6h2.034v5.382h6.264v-5.382h2.052zm8.106 12.816a6.408 6.408 0 01-3.114-.774c-.948-.528-1.704-1.284-2.268-2.268-.552-.984-.828-2.142-.828-3.474 0-1.332.276-2.49.828-3.474.564-.984 1.32-1.734 2.268-2.25a6.292 6.292 0 013.114-.792c1.128 0 2.16.264 3.096.792.948.516 1.698 1.266 2.25 2.25.564.984.846 2.142.846 3.474 0 1.332-.282 2.49-.846 3.474-.552.984-1.302 1.74-2.25 2.268-.936.516-1.968.774-3.096.774zm0-1.98c.78 0 1.482-.18 2.106-.54a3.655 3.655 0 001.476-1.566c.36-.684.54-1.494.54-2.43 0-.936-.18-1.746-.54-2.43a3.655 3.655 0 00-1.476-1.566c-.624-.36-1.326-.54-2.106-.54-.792 0-1.5.18-2.124.54-.624.36-1.116.882-1.476 1.566-.36.684-.54 1.494-.54 2.43 0 .936.18 1.746.54 2.43.36.684.852 1.206 1.476 1.566.624.36 1.332.54 2.124.54zm8.105-10.836h2.034v12.6h-2.034v-12.6zm10.159 12.816a6.372 6.372 0 01-3.096-.774c-.936-.528-1.686-1.284-2.25-2.268-.564-.984-.846-2.142-.846-3.474 0-1.332.282-2.49.846-3.474.564-.984 1.314-1.734 2.25-2.25a6.257 6.257 0 013.096-.792c.924 0 1.8.168 2.628.504.828.336 1.53.858 2.106 1.566.576.696.936 1.56 1.08 2.592h-2.124a3.226 3.226 0 00-1.26-1.926c-.66-.504-1.47-.756-2.43-.756-.804 0-1.518.198-2.142.594a4.054 4.054 0 00-1.458 1.62c-.348.684-.522 1.458-.522 2.322 0 .864.174 1.638.522 2.322a4.054 4.054 0 001.458 1.62c.624.396 1.338.594 2.142.594.96 0 1.77-.246 2.43-.738a3.302 3.302 0 001.26-1.944h2.124c-.144 1.032-.504 1.902-1.08 2.61a5.266 5.266 0 01-2.106 1.548 6.922 6.922 0 01-2.628.504zm9.716-10.962v3.42h6.21v1.854h-6.21v3.618h6.57v1.854h-8.604v-12.6h8.604v1.854h-6.57z" fill="#1D1D1B"/><defs><filter id="filter0_d" x="0" y="0" width="182.786" height="56.335" filterUnits="userSpaceOnUse" color-interpolation-filters="sRGB"><feFlood flood-opacity="0" result="BackgroundImageFix"/><feColorMatrix in="SourceAlpha" values="0 0 0 0 0 0 0 0 0 0 0 0 0 0 0 0 0 0 127 0"/><feOffset dx="2" dy="2"/><feGaussianBlur stdDeviation="2"/><feColorMatrix values="0 0 0 0 0 0 0 0 0 0 0 0 0 0 0 0 0 0 0.12 0"/><feBlend mode="multiply" in2="BackgroundImageFix" result="effect1_dropShadow"/><feBlend in="SourceGraphic" in2="effect1_dropShadow" result="shape"/></filter></defs></svg>