<svg width="140" height="29" fill="none" xmlns="http://www.w3.org/2000/svg"><path d="M63.1 14.457c0 5.287-3.226 7.787-7.262 7.787H53.37V19.07h2.274c2.435 0 4.058-1.313 4.058-4.614 0-3.269-1.535-4.903-4.13-4.903-2.499 0-4.285 1.538-4.285 4.839V27.66h-3.364V6.798h3.364v1.795h.48c1.122-1.506 2.78-2.18 4.51-2.18 3.717 0 6.821 2.692 6.821 8.044zm-22.11-1.378l-2.243-.225c-1.762-.16-2.69-.64-2.69-1.666 0-1.218 1.185-1.923 2.883-1.923 1.762 0 2.883.834 2.979 2.02h3.236c-.128-3.013-2.467-4.872-6.183-4.872-3.749 0-6.28 1.987-6.28 4.903 0 2.436 1.538 4.006 5.03 4.358l2.275.225c1.378.128 2.307.416 2.307 1.73 0 1.186-.865 2.051-3.14 2.051-2.095 0-3.127-.95-3.49-2.225h-3.5c.349 2.913 2.796 5.173 6.99 5.173 3.94 0 6.503-2.083 6.503-5.159 0-2.724-1.794-4.102-4.677-4.39zm35.137 4.376c-.528 1.212-1.789 2.13-3.578 2.13-2.467 0-4.293-1.603-4.293-5.064 0-3.3 1.698-5.127 4.325-5.127 2.339 0 3.684 1.41 3.813 3.525h-6.056v2.435h9.356v-1.602c0-4.455-2.948-7.339-7.145-7.339-3.909 0-7.657 2.66-7.657 8.108s3.748 8.107 7.657 8.107c3.575 0 6.124-2.202 6.916-5.173h-3.338zM23.098 6.413c-3.684 0-6.44 1.923-6.76 4.871h3.62c.257-1.09 1.25-1.89 3.14-1.89 2.435 0 3.236 1.282 3.236 2.852v5.287c-1.378 1.57-2.98 2.307-4.582 2.307-1.666 0-2.819-.8-2.819-2.242 0-1.379.897-2.244 2.627-2.244h2.691V12.92h-2.787c-3.845 0-5.991 1.923-5.991 4.87 0 2.756 2.082 4.84 5.51 4.84 1.923 0 3.62-.77 4.87-1.7h.48v1.315h3.365v-10.32c0-3.813-2.595-5.512-6.6-5.512zM.273 22.243h3.364V1.094H.273v21.15zm14.13-15.445H10.3l-4.9 6.441v2.02l5.03 6.985h4.165L8.7 14.233l5.703-7.435zm121.607 0l-2.755 6.12c-.673 1.475-1.313 2.917-1.506 3.878h-.481c-.192-.961-.864-2.371-1.537-3.845l-2.756-6.153h-3.716l6.472 13.876-3.204 6.986h3.588l9.612-20.862h-3.717zm-13.495 0h-4.101l-4.902 6.441v2.02l5.03 6.985h4.165l-5.895-8.011 5.703-7.435zm-21.062 6.28l-2.243-.223c-1.762-.16-2.69-.641-2.69-1.667 0-1.218 1.185-1.923 2.883-1.923 1.762 0 2.883.834 2.979 2.02h3.236c-.128-3.013-2.467-4.872-6.183-4.872-3.749 0-6.28 1.987-6.28 4.903 0 2.436 1.538 4.006 5.03 4.358l2.275.225c1.377.128 2.307.416 2.307 1.73 0 1.186-.865 2.051-3.14 2.051-2.095 0-3.127-.95-3.49-2.225h-3.5c.349 2.913 2.796 5.173 6.99 5.173 3.94 0 6.504-2.083 6.504-5.159 0-2.724-1.795-4.102-4.678-4.39zm6.933 9.166h3.364V1.094h-3.364v21.15zM86.203 8.593h-.48V6.798h-3.364v15.446h3.364v-8.076c0-2.755 1.273-4.358 3.78-4.358h2.13V6.413H90.4c-2.326 0-3.315.878-4.197 2.18z" fill="#00A88E"/></svg>