<svg width="53" height="13" fill="none" xmlns="http://www.w3.org/2000/svg"><path d="M.5 12.096h2.04V6.872c0-1.03.687-1.778 1.67-1.778.95 0 1.54.587 1.54 1.537v5.465h1.98V6.824c0-1.022.672-1.73 1.654-1.73 1 0 1.556.595 1.556 1.642v5.36h2.04V6.245c0-1.706-1.123-2.841-2.834-2.841-1.253 0-2.285.66-2.703 1.714h-.049C7.076 4.023 6.2 3.404 4.972 3.404c-1.18 0-2.097.652-2.473 1.642h-.041V3.565H.5v8.53zm16.943-1.377c-.884 0-1.474-.442-1.474-1.142 0-.676.565-1.111 1.548-1.175l2.006-.121v.652c0 1.03-.925 1.787-2.08 1.787zm-.614 1.514c1.114 0 2.203-.572 2.703-1.497h.04v1.36h1.966V6.22c0-1.715-1.4-2.833-3.554-2.833-2.211 0-3.595 1.142-3.685 2.736h1.892c.13-.708.745-1.167 1.711-1.167 1.007 0 1.621.515 1.621 1.408v.612l-2.293.129c-2.112.129-3.3 1.038-3.3 2.551 0 1.537 1.22 2.575 2.9 2.575zm13.66-5.626c-.14-1.795-1.556-3.22-3.85-3.22-2.521 0-4.16 1.715-4.16 4.443 0 2.769 1.639 4.434 4.177 4.434 2.178 0 3.677-1.255 3.84-3.162h-1.924c-.188.965-.86 1.545-1.891 1.545-1.294 0-2.13-1.03-2.13-2.817 0-1.755.828-2.817 2.113-2.817 1.09 0 1.736.684 1.9 1.594h1.924zM36.785.289c-3.447 0-5.61 2.31-5.61 6.004 0 3.694 2.162 5.996 5.61 5.996 3.44 0 5.601-2.302 5.601-5.996C42.387 2.6 40.225.29 36.786.29zm0 1.77c2.104 0 3.447 1.643 3.447 4.234 0 2.583-1.343 4.225-3.447 4.225-2.113 0-3.447-1.641-3.447-4.225 0-2.591 1.334-4.233 3.447-4.233zm6.461 6.77c.09 2.14 1.875 3.46 4.594 3.46 2.858 0 4.66-1.384 4.66-3.59 0-1.73-1.016-2.704-3.415-3.243l-1.36-.306c-1.449-.338-2.047-.788-2.047-1.561 0-.966.901-1.61 2.236-1.61 1.35 0 2.276.652 2.374 1.739h2.015C52.254 1.673 50.535.289 47.93.289c-2.571 0-4.397 1.392-4.397 3.453 0 1.658 1.032 2.688 3.21 3.179l1.531.354c1.49.346 2.096.829 2.096 1.666 0 .966-.99 1.658-2.415 1.658-1.442 0-2.53-.7-2.662-1.77h-2.047z" fill="#999"/></svg>