<svg width="67" height="67" fill="none" xmlns="http://www.w3.org/2000/svg"><path fill-rule="evenodd" clip-rule="evenodd" d="M33.5 55.742c12.426 0 22.5-10.073 22.5-22.5 0-12.426-10.074-22.5-22.5-22.5S11 20.816 11 33.242c0 12.427 10.074 22.5 22.5 22.5zm0 3c14.083 0 25.5-11.416 25.5-25.5 0-14.083-11.417-25.5-25.5-25.5S8 19.16 8 33.242c0 14.084 11.417 25.5 25.5 25.5z" fill="#00A88E"/><path d="M32 3.242h3v10.5h-3v-10.5z" fill="#1D1D1B"/><path fill-rule="evenodd" clip-rule="evenodd" d="M32 3.242v10.5h3v-10.5h-3z" fill="#00A88E"/><path d="M63.5 31.742v3H53v-3h10.5z" fill="#1D1D1B"/><path fill-rule="evenodd" clip-rule="evenodd" d="M63.5 31.742H53v3h10.5v-3z" fill="#00A88E"/><path d="M32 52.742h3v10.5h-3v-10.5z" fill="#1D1D1B"/><path fill-rule="evenodd" clip-rule="evenodd" d="M32 52.742v10.5h3v-10.5h-3z" fill="#00A88E"/><path d="M14 31.742v3H3.5v-3H14z" fill="#1D1D1B"/><path fill-rule="evenodd" clip-rule="evenodd" d="M14 31.742H3.5v3H14v-3z" fill="#00A88E"/><path fill-rule="evenodd" clip-rule="evenodd" d="M29.889 34.753l-5.4-5.4 2.121-2.122 5.4 5.4-2.121 2.122z" fill="#1D1D1B"/><path fill-rule="evenodd" clip-rule="evenodd" d="M24.489 32.631l5.4-5.4 2.121 2.122-5.4 5.4-2.121-2.122zm15.901 2.121l-5.4-5.4 2.121-2.121 5.4 5.4-2.121 2.121z" fill="#1D1D1B"/><path fill-rule="evenodd" clip-rule="evenodd" d="M34.99 32.631l5.4-5.4 2.121 2.121-5.4 5.4-2.121-2.121z" fill="#1D1D1B"/><path fill-rule="evenodd" clip-rule="evenodd" d="M25.879 20.227c1.754-1.135 3.872-1.985 6.121-1.985h3c4.563 0 8.388 3.248 10.336 5.98C46.48 25.59 47 27.43 47 29.042v11.7h-4.5v6h-18v-6H20v-11.7c0-1.685.562-3.341 1.637-4.782 1.008-1.423 2.491-2.9 4.242-4.033zm1.63 2.518c-1.43.925-2.642 2.14-3.434 3.262l-.012.018-.013.017c-.716.955-1.05 1.992-1.05 3v8.7h4.5v6h12v-6H44v-8.7c0-1.064-.365-2.196-.989-2.924l-.046-.053-.04-.058C41.26 23.65 38.207 21.242 35 21.242h-3c-1.5 0-3.058.576-4.491 1.503z" fill="#1D1D1B"/><path fill-rule="evenodd" clip-rule="evenodd" d="M29.751 45.243v-6h1.5v6h-1.5zm3.001 0v-6h1.5v6h-1.5zm3 0v-6h1.5v6h-1.5z" fill="#1D1D1B"/></svg>