<svg width="67" height="67" fill="none" xmlns="http://www.w3.org/2000/svg"><g clip-path="url(#clip0)"><path fill-rule="evenodd" clip-rule="evenodd" d="M53.937 1.645l2.421 2.573c4.171 4.432 5.233 10.914 3.705 16.08-.77 2.604-2.222 4.96-4.369 6.559-2.17 1.616-4.953 2.38-8.198 1.929l.412-2.972c2.51.349 4.492-.245 5.995-1.364 1.527-1.137 2.659-2.892 3.283-5.002.953-3.223.664-7.067-.99-10.294-.474 1.762-1.212 3.182-2.148 4.275-1.553 1.812-3.569 2.624-5.5 2.624-1.896 0-3.73-.788-4.909-2.18a5.191 5.191 0 01-1.243-3.597c-2.084.104-3.45 1.019-4.337 2.115-1.18 1.456-1.568 3.3-1.467 4.333l-2.986.292c-.177-1.817.446-4.445 2.122-6.514 1.754-2.166 4.619-3.663 8.689-3.125l1.908.252-.71 1.789c-.43 1.078-.195 1.915.315 2.518.554.654 1.517 1.117 2.618 1.117 1.065 0 2.245-.437 3.221-1.576.989-1.154 1.847-3.127 1.999-6.303l.169-3.529z" fill="#1D1D1B"/><path fill-rule="evenodd" clip-rule="evenodd" d="M65.83 36.4l-1.331-3.273c-1.41-3.466-4.42-5.903-7.618-6.955-3.18-1.045-6.85-.801-9.403 1.577l2.045 2.195c1.51-1.406 3.921-1.744 6.42-.922a9.836 9.836 0 013.843 2.357 7.512 7.512 0 00-2.456.26c-1.757.503-2.98 1.654-3.605 3.019-.61 1.331-.654 2.886-.042 4.188.37.788.965 1.445 1.744 1.876-.607.94-1.399 1.382-2.157 1.576-1.183.304-2.376.025-2.917-.29L48.845 44.6c1.221.711 3.225 1.103 5.171.603 2.068-.53 4.004-2.051 4.907-4.99l.566-1.841-1.923-.098c-.665-.035-.996-.34-1.168-.705-.2-.426-.224-1.054.055-1.663.264-.577.798-1.125 1.702-1.384.923-.264 2.355-.257 4.395.561l3.28 1.317z" fill="#1D1D1B"/><path fill-rule="evenodd" clip-rule="evenodd" d="M29 57.242c10.77 0 19.5-8.73 19.5-19.5s-8.73-19.5-19.5-19.5-19.5 8.73-19.5 19.5 8.73 19.5 19.5 19.5zm0 3c12.426 0 22.5-10.073 22.5-22.5 0-12.426-10.074-22.5-22.5-22.5S6.5 25.316 6.5 37.742c0 12.427 10.074 22.5 22.5 22.5z" fill="#00A88E"/><path d="M33.5 37.742a4.5 4.5 0 11-9 0 4.5 4.5 0 019 0z" fill="#1D1D1B"/><path d="M36.087 22.742l2.598 1.5-8.193 14.19-2.598-1.5 8.193-14.19z" fill="#1D1D1B"/><path d="M18.5 39.242v-3h12v3h-12z" fill="#1D1D1B"/><path d="M9.5 36.242H14v3H9.5v-3zm34.5 0h4.5v3H44v-3zm-16.5-18h3v4.5h-3v-4.5zm0 34.5h3v4.5h-3v-4.5z" fill="#00A88E"/></g><defs><clipPath id="clip0"><path fill="#fff" transform="translate(.5 .242)" d="M0 0h66v66H0z"/></clipPath></defs></svg>